<mxfile host="app.diagrams.net" agent="Mozilla/5.0 (Windows NT 10.0; Win64; x64) AppleWebKit/537.36 (KHTML, like Gecko) Chrome/132.0.0.0 Safari/537.36" version="28.2.8">
  <diagram name="Página-1" id="WSL9T-FXyxixA4M_B67o">
    <mxGraphModel dx="864" dy="450" grid="1" gridSize="10" guides="1" tooltips="1" connect="1" arrows="1" fold="1" page="1" pageScale="1" pageWidth="850" pageHeight="1100" math="0" shadow="0">
      <root>
        <mxCell id="0" />
        <mxCell id="1" parent="0" />
        <mxCell id="cC0jgrX1KYyAM4XNYsji-1" value=":Tela do Bloco" style="shape=umlLifeline;perimeter=lifelinePerimeter;whiteSpace=wrap;html=1;container=1;dropTarget=0;collapsible=0;recursiveResize=0;outlineConnect=0;portConstraint=eastwest;newEdgeStyle={&quot;curved&quot;:0,&quot;rounded&quot;:0};" vertex="1" parent="1">
          <mxGeometry x="110" y="19" width="100" height="330" as="geometry" />
        </mxCell>
        <mxCell id="cC0jgrX1KYyAM4XNYsji-2" value="" style="html=1;points=[[0,0,0,0,5],[0,1,0,0,-5],[1,0,0,0,5],[1,1,0,0,-5]];perimeter=orthogonalPerimeter;outlineConnect=0;targetShapes=umlLifeline;portConstraint=eastwest;newEdgeStyle={&quot;curved&quot;:0,&quot;rounded&quot;:0};" vertex="1" parent="cC0jgrX1KYyAM4XNYsji-1">
          <mxGeometry x="45" y="71" width="10" height="208" as="geometry" />
        </mxCell>
        <mxCell id="cC0jgrX1KYyAM4XNYsji-4" value="" style="endArrow=block;html=1;rounded=0;endFill=1;exitX=0.996;exitY=0.037;exitDx=0;exitDy=0;exitPerimeter=0;" edge="1" parent="1" source="cC0jgrX1KYyAM4XNYsji-2">
          <mxGeometry relative="1" as="geometry">
            <mxPoint x="170" y="100" as="sourcePoint" />
            <mxPoint x="285.0000000000001" y="100" as="targetPoint" />
          </mxGeometry>
        </mxCell>
        <mxCell id="cC0jgrX1KYyAM4XNYsji-7" value="" style="shape=umlLifeline;perimeter=lifelinePerimeter;whiteSpace=wrap;html=1;container=1;dropTarget=0;collapsible=0;recursiveResize=0;outlineConnect=0;portConstraint=eastwest;newEdgeStyle={&quot;curved&quot;:0,&quot;rounded&quot;:0};participant=umlActor;" vertex="1" parent="1">
          <mxGeometry x="20" y="20" width="20" height="330" as="geometry" />
        </mxCell>
        <mxCell id="cC0jgrX1KYyAM4XNYsji-8" value="" style="html=1;points=[[0,0,0,0,5],[0,1,0,0,-5],[1,0,0,0,5],[1,1,0,0,-5]];perimeter=orthogonalPerimeter;outlineConnect=0;targetShapes=umlLifeline;portConstraint=eastwest;newEdgeStyle={&quot;curved&quot;:0,&quot;rounded&quot;:0};verticalAlign=top;" vertex="1" parent="cC0jgrX1KYyAM4XNYsji-7">
          <mxGeometry x="5" y="69" width="10" height="230" as="geometry" />
        </mxCell>
        <mxCell id="cC0jgrX1KYyAM4XNYsji-9" value="" style="endArrow=block;html=1;rounded=0;exitX=1;exitY=0;exitDx=0;exitDy=5;exitPerimeter=0;endFill=1;" edge="1" parent="1">
          <mxGeometry relative="1" as="geometry">
            <mxPoint x="36" y="90" as="sourcePoint" />
            <mxPoint x="155" y="90" as="targetPoint" />
          </mxGeometry>
        </mxCell>
        <mxCell id="cC0jgrX1KYyAM4XNYsji-10" value="Usuário" style="text;html=1;whiteSpace=wrap;strokeColor=none;fillColor=none;align=center;verticalAlign=middle;rounded=0;" vertex="1" parent="1">
          <mxGeometry width="60" height="19" as="geometry" />
        </mxCell>
        <mxCell id="cC0jgrX1KYyAM4XNYsji-13" value=":SistemaTour" style="shape=umlLifeline;perimeter=lifelinePerimeter;whiteSpace=wrap;html=1;container=1;dropTarget=0;collapsible=0;recursiveResize=0;outlineConnect=0;portConstraint=eastwest;newEdgeStyle={&quot;curved&quot;:0,&quot;rounded&quot;:0};labelPosition=center;verticalLabelPosition=middle;align=center;verticalAlign=middle;" vertex="1" parent="1">
          <mxGeometry x="240" y="20" width="100" height="329" as="geometry" />
        </mxCell>
        <mxCell id="cC0jgrX1KYyAM4XNYsji-14" value="" style="html=1;points=[[0,0,0,0,5],[0,1,0,0,-5],[1,0,0,0,5],[1,1,0,0,-5]];perimeter=orthogonalPerimeter;outlineConnect=0;targetShapes=umlLifeline;portConstraint=eastwest;newEdgeStyle={&quot;curved&quot;:0,&quot;rounded&quot;:0};" vertex="1" parent="cC0jgrX1KYyAM4XNYsji-13">
          <mxGeometry x="45" y="80" width="10" height="180" as="geometry" />
        </mxCell>
        <mxCell id="cC0jgrX1KYyAM4XNYsji-25" value="" style="html=1;points=[[0,0,0,0,5],[0,1,0,0,-5],[1,0,0,0,5],[1,1,0,0,-5]];perimeter=orthogonalPerimeter;outlineConnect=0;targetShapes=umlLifeline;portConstraint=eastwest;newEdgeStyle={&quot;curved&quot;:0,&quot;rounded&quot;:0};" vertex="1" parent="cC0jgrX1KYyAM4XNYsji-13">
          <mxGeometry x="50" y="209.20000000000005" width="10" height="33" as="geometry" />
        </mxCell>
        <mxCell id="cC0jgrX1KYyAM4XNYsji-26" value="" style="html=1;align=left;spacingLeft=2;endArrow=block;rounded=0;edgeStyle=elbowEdgeStyle;rounded=0;exitX=1.089;exitY=0.74;exitDx=0;exitDy=0;exitPerimeter=0;entryX=1;entryY=0;entryDx=0;entryDy=5;entryPerimeter=0;" edge="1" parent="cC0jgrX1KYyAM4XNYsji-13">
          <mxGeometry x="-0.1719" y="30" relative="1" as="geometry">
            <mxPoint x="55.499000000000024" y="190" as="sourcePoint" />
            <Array as="points">
              <mxPoint x="80" y="202.20000000000005" />
            </Array>
            <mxPoint x="60" y="214.20000000000005" as="targetPoint" />
            <mxPoint as="offset" />
          </mxGeometry>
        </mxCell>
        <mxCell id="cC0jgrX1KYyAM4XNYsji-15" value="Gerar a visualização do Bloco" style="text;html=1;whiteSpace=wrap;strokeColor=none;fillColor=none;align=center;verticalAlign=middle;rounded=0;fontSize=9;" vertex="1" parent="1">
          <mxGeometry x="34" y="68" width="120" height="19" as="geometry" />
        </mxCell>
        <mxCell id="cC0jgrX1KYyAM4XNYsji-16" value="selecionarBloco(idBloco)" style="text;html=1;whiteSpace=wrap;strokeColor=none;fillColor=none;align=center;verticalAlign=middle;rounded=0;fontSize=9;" vertex="1" parent="1">
          <mxGeometry x="164" y="80" width="120" height="19" as="geometry" />
        </mxCell>
        <mxCell id="cC0jgrX1KYyAM4XNYsji-17" value=":Bloco" style="shape=umlLifeline;perimeter=lifelinePerimeter;whiteSpace=wrap;html=1;container=1;dropTarget=0;collapsible=0;recursiveResize=0;outlineConnect=0;portConstraint=eastwest;newEdgeStyle={&quot;curved&quot;:0,&quot;rounded&quot;:0};" vertex="1" parent="1">
          <mxGeometry x="424" y="19" width="100" height="329" as="geometry" />
        </mxCell>
        <mxCell id="cC0jgrX1KYyAM4XNYsji-18" value="" style="html=1;points=[[0,0,0,0,5],[0,1,0,0,-5],[1,0,0,0,5],[1,1,0,0,-5]];perimeter=orthogonalPerimeter;outlineConnect=0;targetShapes=umlLifeline;portConstraint=eastwest;newEdgeStyle={&quot;curved&quot;:0,&quot;rounded&quot;:0};" vertex="1" parent="cC0jgrX1KYyAM4XNYsji-17">
          <mxGeometry x="45" y="90" width="10" height="20" as="geometry" />
        </mxCell>
        <mxCell id="cC0jgrX1KYyAM4XNYsji-19" value="" style="endArrow=block;html=1;rounded=0;endFill=1;exitX=0.996;exitY=0.037;exitDx=0;exitDy=0;exitPerimeter=0;" edge="1" parent="1" target="cC0jgrX1KYyAM4XNYsji-18">
          <mxGeometry relative="1" as="geometry">
            <mxPoint x="296" y="109" as="sourcePoint" />
            <mxPoint x="416.0000000000001" y="109" as="targetPoint" />
          </mxGeometry>
        </mxCell>
        <mxCell id="cC0jgrX1KYyAM4XNYsji-20" value="retornarBloco()" style="text;html=1;whiteSpace=wrap;strokeColor=none;fillColor=none;align=center;verticalAlign=middle;rounded=0;fontSize=9;" vertex="1" parent="1">
          <mxGeometry x="323" y="92" width="120" height="19" as="geometry" />
        </mxCell>
        <mxCell id="cC0jgrX1KYyAM4XNYsji-21" value="return" style="html=1;verticalAlign=bottom;endArrow=open;dashed=1;endSize=8;curved=0;rounded=0;" edge="1" parent="1" source="cC0jgrX1KYyAM4XNYsji-18">
          <mxGeometry relative="1" as="geometry">
            <mxPoint x="416" y="129" as="sourcePoint" />
            <mxPoint x="295" y="129" as="targetPoint" />
          </mxGeometry>
        </mxCell>
        <mxCell id="cC0jgrX1KYyAM4XNYsji-22" value="" style="html=1;points=[[0,0,0,0,5],[0,1,0,0,-5],[1,0,0,0,5],[1,1,0,0,-5]];perimeter=orthogonalPerimeter;outlineConnect=0;targetShapes=umlLifeline;portConstraint=eastwest;newEdgeStyle={&quot;curved&quot;:0,&quot;rounded&quot;:0};" vertex="1" parent="1">
          <mxGeometry x="290" y="158.20000000000005" width="10" height="33" as="geometry" />
        </mxCell>
        <mxCell id="cC0jgrX1KYyAM4XNYsji-23" value="" style="html=1;align=left;spacingLeft=2;endArrow=block;rounded=0;edgeStyle=elbowEdgeStyle;rounded=0;exitX=1.089;exitY=0.74;exitDx=0;exitDy=0;exitPerimeter=0;entryX=1;entryY=0;entryDx=0;entryDy=5;entryPerimeter=0;" edge="1" parent="1">
          <mxGeometry x="-0.1719" y="30" relative="1" as="geometry">
            <mxPoint x="295.499" y="139" as="sourcePoint" />
            <Array as="points">
              <mxPoint x="320" y="151.20000000000005" />
            </Array>
            <mxPoint x="300" y="163.20000000000005" as="targetPoint" />
            <mxPoint as="offset" />
          </mxGeometry>
        </mxCell>
        <mxCell id="cC0jgrX1KYyAM4XNYsji-24" value="mostrarBloco(bloco)" style="text;html=1;whiteSpace=wrap;strokeColor=none;fillColor=none;align=center;verticalAlign=middle;rounded=0;fontSize=9;" vertex="1" parent="1">
          <mxGeometry x="302" y="139.2" width="120" height="19" as="geometry" />
        </mxCell>
        <mxCell id="cC0jgrX1KYyAM4XNYsji-27" value="mostrarElementos&lt;span style=&quot;background-color: transparent; color: light-dark(rgb(0, 0, 0), rgb(255, 255, 255));&quot;&gt;TelaBloco()&lt;/span&gt;" style="text;html=1;whiteSpace=wrap;strokeColor=none;fillColor=none;align=center;verticalAlign=middle;rounded=0;fontSize=9;" vertex="1" parent="1">
          <mxGeometry x="323" y="210" width="120" height="19" as="geometry" />
        </mxCell>
        <mxCell id="cC0jgrX1KYyAM4XNYsji-28" value="return" style="html=1;verticalAlign=bottom;endArrow=open;dashed=1;endSize=8;curved=0;rounded=0;" edge="1" parent="1" source="cC0jgrX1KYyAM4XNYsji-14">
          <mxGeometry relative="1" as="geometry">
            <mxPoint x="280" y="280" as="sourcePoint" />
            <mxPoint x="166" y="280" as="targetPoint" />
          </mxGeometry>
        </mxCell>
        <mxCell id="cC0jgrX1KYyAM4XNYsji-29" value="return" style="html=1;verticalAlign=bottom;endArrow=open;dashed=1;endSize=8;curved=0;rounded=0;" edge="1" parent="1">
          <mxGeometry relative="1" as="geometry">
            <mxPoint x="154" y="297" as="sourcePoint" />
            <mxPoint x="35" y="297" as="targetPoint" />
          </mxGeometry>
        </mxCell>
      </root>
    </mxGraphModel>
  </diagram>
</mxfile>
